<svg width="285" height="148" viewBox="0 0 285 148" fill="none" xmlns="http://www.w3.org/2000/svg">
<rect width="285" height="148" fill="url(#paint0_linear_2444_372)"/>
<path d="M46.008 67V49.624H39.128V44.6H59.192V49.624H52.344V67H46.008ZM60.7395 67L70.6275 44.6H76.8675L86.7875 67H80.1955L72.4515 47.704H74.9475L67.2035 67H60.7395ZM66.1475 62.648L67.7795 57.976H78.7235L80.3555 62.648H66.1475ZM91.5838 67V44.6H97.9198V67H91.5838ZM52.472 103.192C50.7653 103.192 49.1867 102.915 47.736 102.36C46.3067 101.784 45.0587 100.984 43.992 99.96C42.9467 98.936 42.1253 97.7307 41.528 96.344C40.952 94.9573 40.664 93.4427 40.664 91.8C40.664 90.1573 40.952 88.6427 41.528 87.256C42.1253 85.8693 42.9573 84.664 44.024 83.64C45.0907 82.616 46.3387 81.8267 47.768 81.272C49.2187 80.696 50.7973 80.408 52.504 80.408C54.2107 80.408 55.768 80.6747 57.176 81.208C58.6053 81.7413 59.8213 82.552 60.824 83.64L59.352 85.144C58.4133 84.2053 57.3787 83.5333 56.248 83.128C55.1173 82.7227 53.9013 82.52 52.6 82.52C51.2133 82.52 49.9333 82.7547 48.76 83.224C47.608 83.672 46.5947 84.3227 45.72 85.176C44.8667 86.008 44.1947 86.9893 43.704 88.12C43.2347 89.2293 43 90.456 43 91.8C43 93.1227 43.2347 94.3493 43.704 95.48C44.1947 96.6107 44.8667 97.6027 45.72 98.456C46.5947 99.288 47.608 99.9387 48.76 100.408C49.9333 100.856 51.2027 101.08 52.568 101.08C53.848 101.08 55.0533 100.888 56.184 100.504C57.336 100.12 58.392 99.4693 59.352 98.552L60.696 100.344C59.6293 101.283 58.3813 101.997 56.952 102.488C55.5227 102.957 54.0293 103.192 52.472 103.192ZM58.424 100.056V91.8H60.696V100.344L58.424 100.056ZM72.398 103V80.6H80.782C82.6807 80.6 84.3127 80.9093 85.678 81.528C87.0433 82.1253 88.0887 83 88.814 84.152C89.5607 85.2827 89.934 86.6587 89.934 88.28C89.934 89.8587 89.5607 91.224 88.814 92.376C88.0887 93.5067 87.0433 94.3813 85.678 95C84.3127 95.5973 82.6807 95.896 80.782 95.896H73.71L74.766 94.808V103H72.398ZM87.694 103L81.934 94.872H84.494L90.286 103H87.694ZM74.766 95L73.71 93.88H80.718C82.958 93.88 84.654 93.3893 85.806 92.408C86.9793 91.4267 87.566 90.0507 87.566 88.28C87.566 86.488 86.9793 85.1013 85.806 84.12C84.654 83.1387 82.958 82.648 80.718 82.648H73.71L74.766 81.528V95ZM96.939 103L107.179 80.6H109.515L119.755 103H117.259L107.851 81.976H108.811L99.403 103H96.939ZM100.971 97.016L101.675 95.096H114.699L115.403 97.016H100.971ZM128.461 103V80.6H136.845C138.743 80.6 140.375 80.9093 141.741 81.528C143.106 82.1253 144.151 83 144.877 84.152C145.623 85.2827 145.997 86.6587 145.997 88.28C145.997 89.8587 145.623 91.224 144.877 92.376C144.151 93.5067 143.106 94.3813 141.741 95C140.375 95.6187 138.743 95.928 136.845 95.928H129.773L130.829 94.808V103H128.461ZM130.829 95L129.773 93.848H136.781C139.021 93.848 140.717 93.368 141.869 92.408C143.042 91.4267 143.628 90.0507 143.628 88.28C143.628 86.488 143.042 85.1013 141.869 84.12C140.717 83.1387 139.021 82.648 136.781 82.648H129.773L130.829 81.528V95ZM172.501 80.6H174.837V103H172.501V80.6ZM158.485 103H156.117V80.6H158.485V103ZM172.725 92.664H158.229V90.584H172.725V92.664ZM187.148 103V80.6H189.516V103H187.148ZM211.532 103.192C209.847 103.192 208.29 102.915 206.86 102.36C205.431 101.784 204.194 100.984 203.148 99.96C202.103 98.936 201.282 97.7307 200.684 96.344C200.108 94.9573 199.82 93.4427 199.82 91.8C199.82 90.1573 200.108 88.6427 200.684 87.256C201.282 85.8693 202.103 84.664 203.148 83.64C204.215 82.616 205.463 81.8267 206.892 81.272C208.322 80.696 209.879 80.408 211.564 80.408C213.186 80.408 214.711 80.6853 216.14 81.24C217.57 81.7733 218.775 82.584 219.756 83.672L218.252 85.176C217.335 84.2373 216.322 83.5653 215.212 83.16C214.103 82.7333 212.908 82.52 211.628 82.52C210.284 82.52 209.036 82.7547 207.884 83.224C206.732 83.672 205.73 84.3227 204.876 85.176C204.023 86.008 203.351 86.9893 202.86 88.12C202.391 89.2293 202.156 90.456 202.156 91.8C202.156 93.144 202.391 94.3813 202.86 95.512C203.351 96.6213 204.023 97.6027 204.876 98.456C205.73 99.288 206.732 99.9387 207.884 100.408C209.036 100.856 210.284 101.08 211.628 101.08C212.908 101.08 214.103 100.867 215.212 100.44C216.322 100.013 217.335 99.3307 218.252 98.392L219.756 99.896C218.775 100.984 217.57 101.805 216.14 102.36C214.711 102.915 213.175 103.192 211.532 103.192ZM235.918 103.192C234.254 103.192 232.654 102.925 231.118 102.392C229.603 101.837 228.43 101.133 227.598 100.28L228.526 98.456C229.315 99.224 230.371 99.8747 231.694 100.408C233.038 100.92 234.446 101.176 235.918 101.176C237.326 101.176 238.467 101.005 239.342 100.664C240.238 100.301 240.888 99.8213 241.294 99.224C241.72 98.6267 241.934 97.9653 241.934 97.24C241.934 96.3653 241.678 95.6613 241.166 95.128C240.675 94.5947 240.024 94.1787 239.214 93.88C238.403 93.56 237.507 93.2827 236.526 93.048C235.544 92.8133 234.563 92.568 233.582 92.312C232.6 92.0347 231.694 91.672 230.862 91.224C230.051 90.776 229.39 90.1893 228.878 89.464C228.387 88.7173 228.142 87.7467 228.142 86.552C228.142 85.4427 228.43 84.4293 229.006 83.512C229.603 82.5733 230.51 81.8267 231.726 81.272C232.942 80.696 234.499 80.408 236.398 80.408C237.656 80.408 238.904 80.5893 240.142 80.952C241.379 81.2933 242.446 81.7733 243.342 82.392L242.542 84.28C241.582 83.64 240.558 83.1707 239.47 82.872C238.403 82.5733 237.368 82.424 236.366 82.424C235.022 82.424 233.912 82.6053 233.038 82.968C232.163 83.3307 231.512 83.8213 231.086 84.44C230.68 85.0373 230.478 85.72 230.478 86.488C230.478 87.3627 230.723 88.0667 231.214 88.6C231.726 89.1333 232.387 89.5493 233.198 89.848C234.03 90.1467 234.936 90.4133 235.918 90.648C236.899 90.8827 237.87 91.1387 238.83 91.416C239.811 91.6933 240.707 92.056 241.518 92.504C242.35 92.9307 243.011 93.5067 243.502 94.232C244.014 94.9573 244.27 95.9067 244.27 97.08C244.27 98.168 243.971 99.1813 243.374 100.12C242.776 101.037 241.859 101.784 240.622 102.36C239.406 102.915 237.838 103.192 235.918 103.192Z" fill="white"/>
<defs>
<linearGradient id="paint0_linear_2444_372" x1="0" y1="0" x2="344.363" y2="63.6198" gradientUnits="userSpaceOnUse">
<stop stop-color="#0000FF"/>
<stop offset="0.69762" stop-color="#4444FF"/>
</linearGradient>
</defs>
</svg>