<?xml version="1.0" encoding="UTF-8" standalone="no"?>
<!DOCTYPE svg PUBLIC "-//W3C//DTD SVG 1.1//EN" "http://www.w3.org/Graphics/SVG/1.1/DTD/svg11.dtd">
<svg width="100%" height="100%" viewBox="0 0 285 148" version="1.1" xmlns="http://www.w3.org/2000/svg" xmlns:xlink="http://www.w3.org/1999/xlink" xml:space="preserve" xmlns:serif="http://www.serif.com/" style="fill-rule:evenodd;clip-rule:evenodd;stroke-linejoin:round;stroke-miterlimit:2;">
    <path d="M46.008,67L46.008,49.624L39.128,49.624L39.128,44.6L59.192,44.6L59.192,49.624L52.344,49.624L52.344,67L46.008,67ZM60.74,67L70.628,44.6L76.868,44.6L86.787,67L80.196,67L72.452,47.704L74.948,47.704L67.204,67L60.74,67ZM66.147,62.648L67.78,57.976L78.724,57.976L80.356,62.648L66.147,62.648ZM91.584,67L91.584,44.6L97.92,44.6L97.92,67L91.584,67ZM52.472,103.192C50.765,103.192 49.187,102.915 47.736,102.36C46.307,101.784 45.059,100.984 43.992,99.96C42.947,98.936 42.125,97.731 41.528,96.344C40.952,94.957 40.664,93.443 40.664,91.8C40.664,90.157 40.952,88.643 41.528,87.256C42.125,85.869 42.957,84.664 44.024,83.64C45.091,82.616 46.339,81.827 47.768,81.272C49.219,80.696 50.797,80.408 52.504,80.408C54.211,80.408 55.768,80.675 57.176,81.208C58.605,81.741 59.821,82.552 60.824,83.64L59.352,85.144C58.413,84.205 57.379,83.533 56.248,83.128C55.117,82.723 53.901,82.52 52.6,82.52C51.213,82.52 49.933,82.755 48.76,83.224C47.608,83.672 46.595,84.323 45.72,85.176C44.867,86.008 44.195,86.989 43.704,88.12C43.235,89.229 43,90.456 43,91.8C43,93.123 43.235,94.349 43.704,95.48C44.195,96.611 44.867,97.603 45.72,98.456C46.595,99.288 47.608,99.939 48.76,100.408C49.933,100.856 51.203,101.08 52.568,101.08C53.848,101.08 55.053,100.888 56.184,100.504C57.336,100.12 58.392,99.469 59.352,98.552L60.696,100.344C59.629,101.283 58.381,101.997 56.952,102.488C55.523,102.957 54.029,103.192 52.472,103.192ZM58.424,100.056L58.424,91.8L60.696,91.8L60.696,100.344L58.424,100.056ZM72.398,103L72.398,80.6L80.782,80.6C82.681,80.6 84.313,80.909 85.678,81.528C87.043,82.125 88.089,83 88.814,84.152C89.561,85.283 89.934,86.659 89.934,88.28C89.934,89.859 89.561,91.224 88.814,92.376C88.089,93.507 87.043,94.381 85.678,95C84.313,95.597 82.681,95.896 80.782,95.896L73.71,95.896L74.766,94.808L74.766,103L72.398,103ZM87.694,103L81.934,94.872L84.494,94.872L90.286,103L87.694,103ZM74.766,95L73.71,93.88L80.718,93.88C82.958,93.88 84.654,93.389 85.806,92.408C86.979,91.427 87.566,90.051 87.566,88.28C87.566,86.488 86.979,85.101 85.806,84.12C84.654,83.139 82.958,82.648 80.718,82.648L73.71,82.648L74.766,81.528L74.766,95ZM96.939,103L107.179,80.6L109.515,80.6L119.755,103L117.259,103L107.851,81.976L108.811,81.976L99.403,103L96.939,103ZM100.971,97.016L101.675,95.096L114.699,95.096L115.403,97.016L100.971,97.016ZM128.461,103L128.461,80.6L136.845,80.6C138.743,80.6 140.375,80.909 141.741,81.528C143.106,82.125 144.151,83 144.877,84.152C145.623,85.283 145.997,86.659 145.997,88.28C145.997,89.859 145.623,91.224 144.877,92.376C144.151,93.507 143.106,94.381 141.741,95C140.375,95.619 138.743,95.928 136.845,95.928L129.773,95.928L130.829,94.808L130.829,103L128.461,103ZM130.829,95L129.773,93.848L136.781,93.848C139.021,93.848 140.717,93.368 141.869,92.408C143.042,91.427 143.628,90.051 143.628,88.28C143.628,86.488 143.042,85.101 141.869,84.12C140.717,83.139 139.021,82.648 136.781,82.648L129.773,82.648L130.829,81.528L130.829,95ZM172.501,80.6L174.837,80.6L174.837,103L172.501,103L172.501,80.6ZM158.485,103L156.117,103L156.117,80.6L158.485,80.6L158.485,103ZM172.725,92.664L158.229,92.664L158.229,90.584L172.725,90.584L172.725,92.664ZM187.148,103L187.148,80.6L189.516,80.6L189.516,103L187.148,103ZM211.532,103.192C209.847,103.192 208.29,102.915 206.86,102.36C205.431,101.784 204.194,100.984 203.148,99.96C202.103,98.936 201.282,97.731 200.684,96.344C200.108,94.957 199.82,93.443 199.82,91.8C199.82,90.157 200.108,88.643 200.684,87.256C201.282,85.869 202.103,84.664 203.148,83.64C204.215,82.616 205.463,81.827 206.892,81.272C208.322,80.696 209.879,80.408 211.564,80.408C213.186,80.408 214.711,80.685 216.14,81.24C217.57,81.773 218.775,82.584 219.756,83.672L218.252,85.176C217.335,84.237 216.322,83.565 215.212,83.16C214.103,82.733 212.908,82.52 211.628,82.52C210.284,82.52 209.036,82.755 207.884,83.224C206.732,83.672 205.73,84.323 204.876,85.176C204.023,86.008 203.351,86.989 202.86,88.12C202.391,89.229 202.156,90.456 202.156,91.8C202.156,93.144 202.391,94.381 202.86,95.512C203.351,96.621 204.023,97.603 204.876,98.456C205.73,99.288 206.732,99.939 207.884,100.408C209.036,100.856 210.284,101.08 211.628,101.08C212.908,101.08 214.103,100.867 215.212,100.44C216.322,100.013 217.335,99.331 218.252,98.392L219.756,99.896C218.775,100.984 217.57,101.805 216.14,102.36C214.711,102.915 213.175,103.192 211.532,103.192ZM235.918,103.192C234.254,103.192 232.654,102.925 231.118,102.392C229.603,101.837 228.43,101.133 227.598,100.28L228.526,98.456C229.315,99.224 230.371,99.875 231.694,100.408C233.038,100.92 234.446,101.176 235.918,101.176C237.326,101.176 238.467,101.005 239.342,100.664C240.238,100.301 240.888,99.821 241.294,99.224C241.72,98.627 241.934,97.965 241.934,97.24C241.934,96.365 241.678,95.661 241.166,95.128C240.675,94.595 240.024,94.179 239.214,93.88C238.403,93.56 237.507,93.283 236.526,93.048C235.544,92.813 234.563,92.568 233.582,92.312C232.6,92.035 231.694,91.672 230.862,91.224C230.051,90.776 229.39,90.189 228.878,89.464C228.387,88.717 228.142,87.747 228.142,86.552C228.142,85.443 228.43,84.429 229.006,83.512C229.603,82.573 230.51,81.827 231.726,81.272C232.942,80.696 234.499,80.408 236.398,80.408C237.656,80.408 238.904,80.589 240.142,80.952C241.379,81.293 242.446,81.773 243.342,82.392L242.542,84.28C241.582,83.64 240.558,83.171 239.47,82.872C238.403,82.573 237.368,82.424 236.366,82.424C235.022,82.424 233.912,82.605 233.038,82.968C232.163,83.331 231.512,83.821 231.086,84.44C230.68,85.037 230.478,85.72 230.478,86.488C230.478,87.363 230.723,88.067 231.214,88.6C231.726,89.133 232.387,89.549 233.198,89.848C234.03,90.147 234.936,90.413 235.918,90.648C236.899,90.883 237.87,91.139 238.83,91.416C239.811,91.693 240.707,92.056 241.518,92.504C242.35,92.931 243.011,93.507 243.502,94.232C244.014,94.957 244.27,95.907 244.27,97.08C244.27,98.168 243.971,99.181 243.374,100.12C242.776,101.037 241.859,101.784 240.622,102.36C239.406,102.915 237.838,103.192 235.918,103.192Z" style="fill:rgb(9,9,255);fill-rule:nonzero;"/>
</svg>
